{
    "asset" : {
        "generator" : "Khronos glTF Blender I/O v1.5.17",
        "version" : "2.0"
    },
    "scene" : 0,
    "scenes" : [
        {
            "name" : "Scene",
            "nodes" : [
                0,
                1,
                2,
                3,
                4
            ]
        }
    ],
    "nodes" : [
        {
            "name" : "Light",
            "rotation" : [
                0.16907575726509094,
                0.7558803558349609,
                -0.27217137813568115,
                0.570947527885437
            ],
            "translation" : [
                4.076245307922363,
                5.903861999511719,
                -1.0054539442062378
            ]
        },
        {
            "name" : "Camera",
            "rotation" : [
                0.483536034822464,
                0.33687159419059753,
                -0.20870360732078552,
                0.7804827094078064
            ],
            "translation" : [
                7.358891487121582,
                4.958309173583984,
                6.925790786743164
            ]
        },
        {
            "mesh" : 0,
            "name" : "Curve",
            "rotation" : [
                0.7067236304283142,
                0,
                0,
                0.7074897289276123
            ],
            "scale" : [
                82.13109588623047,
                82.13109588623047,
                82.13109588623047
            ],
            "translation" : [
                -13.311458587646484,
                -10.34146499633789,
                0
            ]
        },
        {
            "mesh" : 1,
            "name" : "Curve.001",
            "rotation" : [
                0.7067236304283142,
                0,
                0,
                0.7074897289276123
            ],
            "scale" : [
                82.13109588623047,
                82.13109588623047,
                82.13109588623047
            ],
            "translation" : [
                -13.311458587646484,
                -10.34146499633789,
                0
            ]
        },
        {
            "mesh" : 2,
            "name" : "Curve.002",
            "rotation" : [
                0.7067236304283142,
                0,
                0,
                0.7074897289276123
            ],
            "scale" : [
                82.13109588623047,
                82.13109588623047,
                82.13109588623047
            ],
            "translation" : [
                -13.311458587646484,
                -10.34146499633789,
                0
            ]
        }
    ],
    "materials" : [
        {
            "doubleSided" : true,
            "name" : "Material.002",
            "pbrMetallicRoughness" : {
                "baseColorFactor" : [
                    0.7991032600402832,
                    0.471686452627182,
                    0.22363537549972534,
                    1
                ],
                "metallicFactor" : 0.029999999329447746,
                "roughnessFactor" : 0.5
            }
        },
        {
            "doubleSided" : true,
            "name" : "Material.003",
            "pbrMetallicRoughness" : {
                "baseColorFactor" : [
                    0.7991030216217041,
                    0.1682693213224411,
                    0.036889467388391495,
                    1
                ],
                "metallicFactor" : 0.029999999329447746,
                "roughnessFactor" : 0.5
            }
        },
        {
            "doubleSided" : true,
            "name" : "Material.001",
            "pbrMetallicRoughness" : {
                "baseColorFactor" : [
                    0.7991030216217041,
                    0.1682693213224411,
                    0.036889467388391495,
                    1
                ],
                "metallicFactor" : 0.029999999329447746,
                "roughnessFactor" : 0.5
            }
        }
    ],
    "meshes" : [
        {
            "name" : "Curve",
            "primitives" : [
                {
                    "attributes" : {
                        "POSITION" : 0,
                        "NORMAL" : 1,
                        "TEXCOORD_0" : 2
                    },
                    "indices" : 3,
                    "material" : 0
                }
            ]
        },
        {
            "name" : "Curve.001",
            "primitives" : [
                {
                    "attributes" : {
                        "POSITION" : 4,
                        "NORMAL" : 5,
                        "TEXCOORD_0" : 6
                    },
                    "indices" : 7,
                    "material" : 1
                }
            ]
        },
        {
            "name" : "Curve.002",
            "primitives" : [
                {
                    "attributes" : {
                        "POSITION" : 8,
                        "NORMAL" : 9,
                        "TEXCOORD_0" : 10
                    },
                    "indices" : 11,
                    "material" : 2
                }
            ]
        }
    ],
    "accessors" : [
        {
            "bufferView" : 0,
            "componentType" : 5126,
            "count" : 26,
            "max" : [
                0.27381759881973267,
                0.009999999776482582,
                -0.1863439977169037
            ],
            "min" : [
                0.15801945328712463,
                -0.009999999776482582,
                -0.2865701913833618
            ],
            "type" : "VEC3"
        },
        {
            "bufferView" : 1,
            "componentType" : 5126,
            "count" : 26,
            "type" : "VEC3"
        },
        {
            "bufferView" : 2,
            "componentType" : 5126,
            "count" : 26,
            "type" : "VEC2"
        },
        {
            "bufferView" : 3,
            "componentType" : 5123,
            "count" : 60,
            "type" : "SCALAR"
        },
        {
            "bufferView" : 4,
            "componentType" : 5126,
            "count" : 318,
            "max" : [
                0.23972445726394653,
                0.019999999552965164,
                -0.262698769569397
            ],
            "min" : [
                0.19208437204360962,
                -0.019999999552965164,
                -0.31032878160476685
            ],
            "type" : "VEC3"
        },
        {
            "bufferView" : 5,
            "componentType" : 5126,
            "count" : 318,
            "type" : "VEC3"
        },
        {
            "bufferView" : 6,
            "componentType" : 5126,
            "count" : 318,
            "type" : "VEC2"
        },
        {
            "bufferView" : 7,
            "componentType" : 5123,
            "count" : 564,
            "type" : "SCALAR"
        },
        {
            "bufferView" : 8,
            "componentType" : 5126,
            "count" : 328,
            "max" : [
                0.2860380709171295,
                0.029999999329447746,
                -0.12500059604644775
            ],
            "min" : [
                0.14579898118972778,
                -0.029999999329447746,
                -0.25646287202835083
            ],
            "type" : "VEC3"
        },
        {
            "bufferView" : 9,
            "componentType" : 5126,
            "count" : 328,
            "type" : "VEC3"
        },
        {
            "bufferView" : 10,
            "componentType" : 5126,
            "count" : 328,
            "type" : "VEC2"
        },
        {
            "bufferView" : 11,
            "componentType" : 5123,
            "count" : 612,
            "type" : "SCALAR"
        }
    ],
    "bufferViews" : [
        {
            "buffer" : 0,
            "byteLength" : 312,
            "byteOffset" : 0
        },
        {
            "buffer" : 0,
            "byteLength" : 312,
            "byteOffset" : 312
        },
        {
            "buffer" : 0,
            "byteLength" : 208,
            "byteOffset" : 624
        },
        {
            "buffer" : 0,
            "byteLength" : 120,
            "byteOffset" : 832
        },
        {
            "buffer" : 0,
            "byteLength" : 3816,
            "byteOffset" : 952
        },
        {
            "buffer" : 0,
            "byteLength" : 3816,
            "byteOffset" : 4768
        },
        {
            "buffer" : 0,
            "byteLength" : 2544,
            "byteOffset" : 8584
        },
        {
            "buffer" : 0,
            "byteLength" : 1128,
            "byteOffset" : 11128
        },
        {
            "buffer" : 0,
            "byteLength" : 3936,
            "byteOffset" : 12256
        },
        {
            "buffer" : 0,
            "byteLength" : 3936,
            "byteOffset" : 16192
        },
        {
            "buffer" : 0,
            "byteLength" : 2624,
            "byteOffset" : 20128
        },
        {
            "buffer" : 0,
            "byteLength" : 1224,
            "byteOffset" : 22752
        }
    ],
    "buffers" : [
        {
            "byteLength" : 23976,
            "uri" : "menutech5.bin"
        }
    ]
}
